# xmcd
#
# Track frame offsets: 
#        150
#        14799
#        30654
#        47464
#        64184
#        79024
#        98027
#        106172
#        123789
#        147661
#        161872
#
# Disc length: 2304 seconds
#
# Revision: 0
# Processed by: cddbd v1.5.2PL0 Copyright (c) Steve Scherf et al.
# Submitted via: ExactAudioCopyFreeDBPlugin 1.0
#
DISCID=8f08fe0b
DTITLE=Caroline Rose - I Will Not Be Afraid
DYEAR=2014
DGENRE=Country
TTITLE0=Blood on Your Bootheels
TTITLE1=Tightrope Walker
TTITLE2=When You Go
TTITLE3=Let Me In
TTITLE4=At Midnight
TTITLE5=American Religious
TTITLE6=Red Bikini Waltz
TTITLE7=Time Spent, Money Grow!
TTITLE8=Shepherd
TTITLE9=Back East
TTITLE10=I WIll Not Be Afraid
EXTD=
EXTT0=
EXTT1=
EXTT2=
EXTT3=
EXTT4=
EXTT5=
EXTT6=
EXTT7=
EXTT8=
EXTT9=
EXTT10=
PLAYORDER=
